<svg id="Layer_1" enable-background="new 0 0 128 128" height="512" viewBox="0 0 128 128" width="512" xmlns="http://www.w3.org/2000/svg"><g><g><path d="m111.5 6.56h-92c-2.757 0-5 2.243-5 5v100.88c0 2.757 2.243 5 5 5h2.5v4c0 1.654 1.346 3 3 3h81c1.654 0 3-1.346 3-3v-4h2.5c2.757 0 5-2.243 5-5v-100.88c0-2.757-2.243-5-5-5z" fill="#e6e7e8"/></g><g><g><path d="m107.5 112.44h-92c-2.209 0-4-1.791-4-4v-100.88c0-2.209 1.791-4 4-4h92c2.209 0 4 1.791 4 4v100.88c0 2.209-1.791 4-4 4z" fill="#6dc9f7"/></g><g><path d="m107.5 3.56h-92c-2.209 0-4 1.791-4 4v3c0-2.209 1.791-4 4-4h92c2.209 0 4 1.791 4 4v-3c0-2.209-1.791-4-4-4z" fill="#fff"/></g><path d="m97.5 101.543h-72c-2.209 0-4-1.791-4-4v-59.304c0-2.209 1.791-4 4-4h72c2.209 0 4 1.791 4 4v59.304c0 2.209-1.791 4-4 4z" fill="#d4fbff"/><g fill="#0089ef"><path d="m21.5 56.458h80v4.866h-80z"/><path d="m104 112.44h-85v5c0 1.105.895 2 2 2h81c1.104 0 2-.895 2-2z"/><g><path d="m63.166 13.783c0-2.301 1.866-4.167 4.167-4.167s4.167 1.865 4.167 4.167-1.865 4.167-4.167 4.167c-2.301-.001-4.167-1.866-4.167-4.167z"/><path d="m78.167 13.783c0-2.301 1.866-4.167 4.167-4.167s4.167 1.865 4.167 4.167-1.866 4.167-4.167 4.167c-2.302-.001-4.167-1.866-4.167-4.167z"/><path d="m93.167 13.783c0-2.301 1.865-4.167 4.167-4.167s4.167 1.865 4.167 4.167-1.866 4.167-4.167 4.167-4.167-1.866-4.167-4.167z"/></g></g><g><g><ellipse cx="46.362" cy="83.675" fill="#fa759e" rx="17.206" ry="17.206" transform="matrix(.707 -.707 .707 .707 -45.588 57.291)"/><g><circle cx="46.362" cy="83.675" fill="#ffd7e5" r="12.949"/></g></g><g><ellipse cx="55.954" cy="83.675" fill="#fa759e" rx="17.206" ry="17.206" transform="matrix(.201 -.98 .98 .201 -37.269 121.649)"/><g><circle cx="55.954" cy="83.675" fill="#ffd7e5" r="12.949"/></g></g><g><ellipse cx="65.546" cy="83.675" fill="#fa759e" rx="17.206" ry="17.206" transform="matrix(.232 -.973 .973 .232 -31.028 128.074)"/><g><circle cx="65.546" cy="83.675" fill="#ffd7e5" r="12.949"/></g></g><g><ellipse cx="75.138" cy="83.675" fill="#fa759e" rx="17.206" ry="17.206" transform="matrix(.707 -.707 .707 .707 -37.16 77.639)"/><g><circle cx="75.138" cy="83.675" fill="#ffd7e5" r="12.949"/></g></g></g><path d="m21.5 10.646h33.454v6.273h-33.454z" fill="#0089ef"/><g><g><path d="m53.771 45.011c1.378-1.746 2.188-3.797 2.188-6h-29.25c0 2.203.809 4.254 2.188 6z" fill="#ffd7e5"/><path d="m41.333 56.458c8.077 0 14.625-5.125 14.625-11.446h-29.25c0 6.321 6.548 11.446 14.625 11.446z" fill="#fa759e"/></g><path d="m87.089 56.458h-6.014c-2.462 0-4.457-1.995-4.457-4.457v-12.87h14.928v12.87c0 2.461-1.996 4.457-4.457 4.457z" fill="#fa759e"/><g><path d="m70.546 56.458h-8.928l-2-17.327h12.928z" fill="#ffd7e5"/><g fill="#3a2c60"><path d="m107.5 2.56h-92c-2.757 0-5 2.243-5 5v100.88c0 2.757 2.243 5 5 5h2.5v4c0 1.654 1.346 3 3 3h81c1.654 0 3-1.346 3-3v-4h2.5c2.757 0 5-2.243 5-5v-25.765c0-.552-.447-1-1-1s-1 .448-1 1v25.765c0 1.654-1.346 3-3 3h-3.5-85-3.5c-1.654 0-3-1.346-3-3v-83.88h98v40.94c0 .552.447 1 1 1s1-.448 1-1v-57.94c0-2.757-2.243-5-5-5zm-4.5 110.88v4c0 .551-.448 1-1 1h-81c-.552 0-1-.449-1-1v-4zm-90.5-90.88v-15c0-1.654 1.346-3 3-3h92c1.654 0 3 1.346 3 3v15z"/><path d="m111.5 68.891c-.553 0-1 .448-1 1v8.442c0 .552.447 1 1 1s1-.448 1-1v-8.442c0-.553-.447-1-1-1z"/><path d="m25.5 33.239c-2.757 0-5 2.243-5 5v59.304c0 2.757 2.243 5 5 5h72c2.757 0 5-2.243 5-5v-59.304c0-2.757-2.243-5-5-5zm2.272 6.773h27.122c-.179 1.395-.73 2.756-1.622 4h-23.877c-.893-1.244-1.444-2.606-1.623-4zm27.124 6c-.659 5.292-6.49 9.446-13.563 9.446s-12.904-4.153-13.563-9.446zm45.604 11.446v2.866h-78v-2.866zm-39.76-17.327h10.684l-1.77 15.327h-7.144zm16.878 11.869v-11.87h12.928v11.87c0 1.906-1.551 3.457-3.457 3.457h-6.014c-1.906.001-3.457-1.55-3.457-3.457zm-18.685 31.675c0-8.936 7.27-16.206 16.205-16.206 8.937 0 16.206 7.27 16.206 16.206s-7.27 16.206-16.206 16.206-16.205-7.27-16.205-16.206zm-2 0c0 7.016 3.995 13.107 9.824 16.145-.401.031-.802.061-1.211.061-8.937 0-16.206-7.27-16.206-16.206s7.27-16.206 16.206-16.206c.409 0 .81.029 1.211.061-5.829 3.039-9.824 9.13-9.824 16.145zm-9.593 0c0 7.016 3.995 13.107 9.825 16.145-.401.031-.802.061-1.21.061-8.937 0-16.206-7.27-16.206-16.206s7.27-16.206 16.206-16.206c.409 0 .81.029 1.21.061-5.83 3.039-9.825 9.13-9.825 16.145zm-9.592 0c0 7.016 3.995 13.107 9.825 16.145-.401.031-.802.061-1.21.061-8.937 0-16.206-7.27-16.206-16.206s7.27-16.206 16.206-16.206c.409 0 .81.029 1.21.061-5.83 3.039-9.825 9.13-9.825 16.145zm59.752 16.867h-15.539c6.666-2.706 11.383-9.242 11.383-16.867 0-10.039-8.167-18.206-18.206-18.206-1.664 0-3.27.244-4.803.664-1.527-.423-3.129-.664-4.789-.664-1.665 0-3.27.244-4.803.664-1.527-.423-3.128-.664-4.789-.664-1.665 0-3.27.244-4.803.664-1.527-.423-3.128-.664-4.789-.664-10.039 0-18.206 8.167-18.206 18.206 0 7.626 4.717 14.161 11.383 16.867h-14.039c-1.654 0-3-1.346-3-3v-35.218h78v35.219c0 1.654-1.346 2.999-3 2.999zm3-62.303v17.219h-9.193c.773-.942 1.239-2.146 1.239-3.457v-1.543h1.579c2.022 0 3.667-1.645 3.667-3.667v-1.993c0-2.022-1.645-3.667-3.667-3.667h-1.579v-2c0-.552-.447-1-1-1h-14.928c-.553 0-1 .448-1 1v12.869c0 1.311.465 2.515 1.239 3.457h-5.189l1.871-16.212c.033-.283-.057-.567-.247-.78-.189-.213-.461-.334-.746-.334h-12.928c-.285 0-.557.122-.746.334-.19.213-.28.497-.247.78l1.871 16.212h-10.698c4.302-2.219 7.16-6.068 7.16-10.446 0-.552-.447-1-1-1h-.336c.872-1.573 1.336-3.271 1.336-5 0-.552-.447-1-1-1h-29.25c-.553 0-1 .448-1 1 0 1.729.464 3.426 1.337 5h-.337c-.553 0-1 .448-1 1 0 4.377 2.858 8.227 7.16 10.446h-10.368v-17.218c0-1.654 1.346-3 3-3h72c1.654 0 3 1.345 3 3zm-7.954 4.892h1.579c.919 0 1.667.748 1.667 1.667v1.993c0 .919-.748 1.667-1.667 1.667h-1.579z"/><path d="m67.333 8.616c-2.849 0-5.167 2.318-5.167 5.167s2.318 5.167 5.167 5.167 5.167-2.318 5.167-5.167-2.318-5.167-5.167-5.167zm0 8.333c-1.746 0-3.167-1.42-3.167-3.167s1.421-3.167 3.167-3.167 3.167 1.421 3.167 3.167-1.421 3.167-3.167 3.167z"/><path d="m82.333 8.616c-2.849 0-5.166 2.318-5.166 5.167s2.317 5.167 5.166 5.167 5.167-2.318 5.167-5.167-2.318-5.167-5.167-5.167zm0 8.333c-1.746 0-3.166-1.42-3.166-3.167s1.42-3.167 3.166-3.167 3.167 1.421 3.167 3.167-1.421 3.167-3.167 3.167z"/><path d="m97.333 8.616c-2.849 0-5.166 2.318-5.166 5.167s2.317 5.167 5.166 5.167 5.167-2.318 5.167-5.167-2.318-5.167-5.167-5.167zm0 8.333c-1.746 0-3.166-1.42-3.166-3.167s1.42-3.167 3.166-3.167 3.167 1.421 3.167 3.167-1.421 3.167-3.167 3.167z"/><path d="m54.954 9.646h-33.454c-.553 0-1 .448-1 1v6.273c0 .552.447 1 1 1h33.454c.553 0 1-.448 1-1v-6.273c0-.552-.447-1-1-1zm-1 6.273h-31.454v-4.273h31.454z"/></g></g></g></g></g></svg>