<svg id="Capa_1" enable-background="new 0 0 512 512" height="512" viewBox="0 0 512 512" width="512" xmlns="http://www.w3.org/2000/svg"><g><g><path d="m359.764 297.778h-66.944c-8.284 0-15-6.716-15-15v-185.834h-63.722l-70.167-27.944-80.333 27.944h-45.25c-8.284 0-15-6.716-15-15v-66.944c0-8.284 6.716-15 15-15h45.25l75.25 21.5 75.25-21.5h78.536c45.286 0 82.13 36.843 82.13 82.129v200.648c0 8.285-6.716 15.001-15 15.001z" fill="#dcd5ea"/></g><g><path d="m214.098 96.944h-150.5v-96.944h150.5z" fill="#b8b5d2"/></g><path d="m326.292 7.243v290.535h33.472c8.284 0 15-6.716 15-15v-200.649c0-33.295-19.928-62.005-48.472-74.886z" fill="#b8b5d2"/><path d="m326.292 133.889c-100.555 0-182.361 81.807-182.361 182.361 0 8.284 6.716 15 15 15h334.722c8.284 0 15-6.716 15-15-.001-100.554-81.807-182.361-182.361-182.361z" fill="#efe8f9"/><g fill="#99f2fa"><path d="m199.098 361.5c-8.284 0-15 6.716-15 15v60.25c0 8.284 6.716 15 15 15s15-6.716 15-15v-60.25c0-8.284-6.716-15-15-15z"/><path d="m259.348 421.75c-8.284 0-15 6.716-15 15v60.25c0 8.284 6.716 15 15 15s15-6.716 15-15v-60.25c0-8.284-6.716-15-15-15z"/><path d="m319.598 361.5c-8.284 0-15 6.716-15 15v60.25c0 8.284 6.716 15 15 15s15-6.716 15-15v-60.25c0-8.284-6.716-15-15-15z"/><path d="m379.848 421.75c-8.284 0-15 6.716-15 15v60.25c0 8.284 6.716 15 15 15s15-6.716 15-15v-60.25c0-8.284-6.716-15-15-15z"/><path d="m440.098 361.5c-8.284 0-15 6.716-15 15v60.25c0 8.284 6.716 15 15 15s15-6.716 15-15v-60.25c0-8.284-6.716-15-15-15z"/></g><path d="m326.292 133.889v197.361h167.361c8.284 0 15-6.716 15-15-.001-100.554-81.807-182.361-182.361-182.361z" fill="#dcd5ea"/></g></svg>