<?xml version="1.0" encoding="iso-8859-1"?>
<!-- Generator: Adobe Illustrator 19.0.0, SVG Export Plug-In . SVG Version: 6.00 Build 0)  -->
<svg version="1.1" id="Capa_1" xmlns="http://www.w3.org/2000/svg" xmlns:xlink="http://www.w3.org/1999/xlink" x="0px" y="0px"
	 viewBox="0 0 512 512" style="enable-background:new 0 0 512 512;" xml:space="preserve">
<path style="fill:#90A4AE;" d="M202.668,192h106.667c5.891,0,10.667,4.776,10.667,10.667v42.667c0,5.891-4.776,10.667-10.667,10.667
	H202.668c-5.891,0-10.667-4.776-10.667-10.667v-42.667C192.001,196.776,196.777,192,202.668,192z"/>
<path style="fill:#B0BEC5;" d="M334.401,472.256l-14.699-58.837c-1.187-4.758-5.464-8.094-10.368-8.085H202.668
	c-4.896,0.001-9.162,3.335-10.347,8.085l-14.699,58.816c-4.289,17.145,6.133,34.52,23.278,38.809
	c2.538,0.635,5.145,0.956,7.762,0.956h94.677c17.673,0.007,32.006-14.314,32.013-31.987
	C335.353,477.398,335.034,474.793,334.401,472.256z"/>
<path style="fill:#CFD8DC;" d="M397.164,10.667C391.098,3.885,382.433,0.006,373.334,0H138.668
	c-17.673-0.001-32.001,14.325-32.002,31.998c0,1.177,0.065,2.353,0.194,3.522l0,0l16.597,149.333
	c1.794,16.213,15.496,28.481,31.808,28.48h201.451c16.304,0.002,30.004-12.254,31.808-28.459l16.597-149.333
	C406.127,26.495,403.233,17.449,397.164,10.667z"/>
<circle style="fill:#4DB6AC;" cx="202.668" cy="74.667" r="32"/>
<path style="fill:#009688;" d="M266.668,64h-64c-5.891,0-10.667-4.776-10.667-10.667s4.776-10.667,10.667-10.667h64
	c5.891,0,10.667,4.776,10.667,10.667S272.559,64,266.668,64z"/>
<path style="fill:#CFD8DC;" d="M394.668,277.333H117.334c-5.891,0-10.667,4.776-10.667,10.667
	c0,79.061,64.213,138.667,149.333,138.667S405.334,367.061,405.334,288C405.334,282.109,400.559,277.333,394.668,277.333z"/>
<ellipse style="fill:#607D8B;" cx="256.001" cy="288" rx="138.667" ry="42.667"/>
<path style="fill:#CFD8DC;" d="M256.001,341.333c-74.219,0-149.333-18.304-149.333-53.333c0-70.037,298.667-70.037,298.667,0
	C405.334,323.029,330.22,341.333,256.001,341.333z M256.001,256c-79.403,0-128,20.715-128,32s48.597,32,128,32s128-20.715,128-32
	S335.404,256,256.001,256z"/>
<g>
</g>
<g>
</g>
<g>
</g>
<g>
</g>
<g>
</g>
<g>
</g>
<g>
</g>
<g>
</g>
<g>
</g>
<g>
</g>
<g>
</g>
<g>
</g>
<g>
</g>
<g>
</g>
<g>
</g>
</svg>
